<svg xmlns="http://www.w3.org/2000/svg" viewBox="0 0 64 64" width="64" height="64">
  <defs>
    <linearGradient id="g" x1="10" y1="10" x2="54" y2="54" gradientUnits="userSpaceOnUse">
      <stop offset="0" stop-color="#0a84ff"/>
      <stop offset="1" stop-color="#5e5ce6"/>
    </linearGradient>
  </defs>
  <rect x="6" y="6" width="52" height="52" rx="14" fill="url(#g)"/>
  <path d="M39.9 22.3c-1.8-1.5-4.4-2.3-7.7-2.3-2.9 0-5.3.6-7 1.8-1.7 1.2-2.6 2.9-2.6 5 0 1.8.6 3.2 1.9 4.2 1.2.9 3.2 1.6 6 2l2.8.5c1.7.3 2.9.7 3.5 1.1.6.4.9 1 .9 1.8 0 .9-.4 1.6-1.3 2.1-.9.5-2.2.8-3.8.8-1.9 0-3.4-.3-4.6-1-1.2-.7-2-1.6-2.4-2.8l-6.3 1.6c.7 2.4 2.2 4.2 4.4 5.5 2.2 1.3 5.1 1.9 8.6 1.9 3.3 0 6-.7 7.9-2.1 1.9-1.4 2.9-3.3 2.9-5.7 0-1.9-.7-3.4-2-4.4-1.3-1.1-3.4-1.8-6.1-2.3l-3-.5c-1.6-.3-2.7-.6-3.3-1-.6-.4-.9-.9-.9-1.6 0-.8.4-1.4 1.2-1.9.8-.5 1.9-.7 3.4-.7 1.6 0 2.9.3 3.9.8 1 .6 1.7 1.3 2.1 2.3l6.1-1.7c-.6-2.1-1.8-3.7-3.6-5.2z" fill="#fff" fill-rule="evenodd"/>
</svg>
